<svg width="52" height="44" viewBox="0 0 52 44" fill="none" xmlns="http://www.w3.org/2000/svg">
<path d="M49.077 17.5177L49.1582 17.5354H14.3622L25.3008 6.57272C25.8364 6.0375 26.1302 5.31245 26.1302 4.55148C26.1302 3.7905 25.8364 3.07054 25.3008 2.53405L23.5987 0.831154C23.0635 0.295935 22.3503 0 21.5897 0C20.8288 0 20.1151 0.293821 19.5799 0.829041L0.829052 19.5782C0.291719 20.1155 -0.00210249 20.8313 1.13264e-05 21.5927C-0.00210249 22.3583 0.291719 23.0745 0.829052 23.611L19.5799 42.3618C20.1151 42.8966 20.8283 43.1909 21.5897 43.1909C22.3503 43.1909 23.0635 42.8962 23.5987 42.3618L25.3008 40.6589C25.8364 40.1245 26.1302 39.4109 26.1302 38.6499C26.1302 37.8894 25.8364 37.2134 25.3008 36.6786L14.2387 25.6546H49.1159C50.6831 25.6546 52 24.3039 52 22.7375V20.329C52 18.7627 50.6442 17.5177 49.077 17.5177Z" fill="#EE002F"/>
</svg>
