<svg width="52" height="44" viewBox="0 0 52 44" fill="none" xmlns="http://www.w3.org/2000/svg">
<path d="M49.077 17.9222L49.1582 17.94H14.3622L25.3008 6.97726C25.8364 6.44204 26.1302 5.717 26.1302 4.95602C26.1302 4.19504 25.8364 3.47508 25.3008 2.93859L23.5987 1.2357C23.0635 0.700476 22.3503 0.404541 21.5897 0.404541C20.8288 0.404541 20.1151 0.698362 19.5799 1.23358L0.829052 19.9828C0.291719 20.5201 -0.00210249 21.2358 1.13264e-05 21.9972C-0.00210249 22.7628 0.291719 23.479 0.829052 24.0155L19.5799 42.7664C20.1151 43.3012 20.8283 43.5954 21.5897 43.5954C22.3503 43.5954 23.0635 43.3007 23.5987 42.7664L25.3008 41.0635C25.8364 40.5291 26.1302 39.8155 26.1302 39.0545C26.1302 38.2939 25.8364 37.6179 25.3008 37.0831L14.2387 26.0591H49.1159C50.6831 26.0591 52 24.7084 52 23.1421V20.7336C52 19.1672 50.6442 17.9222 49.077 17.9222Z" fill="white"/>
</svg>
