<svg width="295" height="250" viewBox="0 0 295 250" fill="none" xmlns="http://www.w3.org/2000/svg"><path d="M137.127 152.061V268.825H0.838135V176.642C0.838135 126.736 6.7086 90.6055 18.4624 68.2585C33.8842 38.4655 58.2959 15.936 91.7104 0.656982L115.942 39.7652C95.7469 48.3371 80.8736 61.0907 71.3309 78.0345C61.7796 94.9871 56.4619 119.655 55.3564 152.061H137.127ZM295 152.061V268.825H158.711V176.642C158.711 126.736 164.581 90.6055 176.335 68.2585C191.757 38.4655 216.169 15.936 249.583 0.656982L273.815 39.7652C253.62 48.3371 238.746 61.0907 229.204 78.0345C219.652 94.9871 214.335 119.655 213.229 152.061H295Z" fill="white" fill-opacity="0.05"/></svg>

