<svg width="26" height="26" viewBox="0 0 26 26" fill="none" xmlns="http://www.w3.org/2000/svg">
<path d="M1 17.8001C1 14.406 1 12.709 2.05442 11.6545C3.10883 10.6001 4.80589 10.6001 8.20001 10.6001H17.8C21.1941 10.6001 22.8911 10.6001 23.9456 11.6545C25 12.709 25 14.406 25 17.8001C25 21.1942 25 22.8912 23.9456 23.9457C22.8911 25.0001 21.1941 25.0001 17.8 25.0001H8.20001C4.80589 25.0001 3.10883 25.0001 2.05442 23.9457C1 22.8912 1 21.1942 1 17.8001Z" stroke="#EE002F" stroke-width="1.8"/>
<path d="M5.7998 10.6V8.20001C5.7998 4.22355 9.02336 1 12.9998 1C16.9763 1 20.1998 4.22355 20.1998 8.20001V10.6" stroke="#EE002F" stroke-width="1.8" stroke-linecap="round"/>
</svg>
